<?xml version="1.0" encoding="utf-8"?>
<!-- Generator: Adobe Illustrator 15.0.2, SVG Export Plug-In . SVG Version: 6.00 Build 0)  -->
<!DOCTYPE svg PUBLIC "-//W3C//DTD SVG 1.1//EN" "http://www.w3.org/Graphics/SVG/1.1/DTD/svg11.dtd">
<svg version="1.1" id="Layer_2" xmlns="http://www.w3.org/2000/svg" xmlns:xlink="http://www.w3.org/1999/xlink" x="0px" y="0px"
	 width="54px" height="54px" viewBox="0 0 54 54" enable-background="new 0 0 54 54" xml:space="preserve">
<g>
	<path fill="none" d="M39.417,15.899H10.879v18.276h28.538V15.899z M16.659,17.803c1.589,0,2.878,1.289,2.878,2.878
		s-1.289,2.878-2.878,2.878c-1.59,0-2.878-1.289-2.878-2.878S15.069,17.803,16.659,17.803z M38.182,32.928H12.021l4.566-4.375
		l2.354,2.151l5.744-6.731l2.211,2.368l4.53-5.875l6.756,8.087V32.928z"/>
	<polygon fill="#FFFFFF" points="26.896,26.341 24.685,23.973 18.941,30.704 16.587,28.553 12.021,32.928 38.182,32.928 
		38.182,28.553 31.426,20.466 	"/>
	<circle fill="#FFFFFF" cx="16.659" cy="20.681" r="2.878"/>
	<path fill="#FFFFFF" d="M43.955,18.183l0.027,17.398c0,0,0.512,3.125-1.844,3.125H13.162c0,0.632,1.653,2.283,2.284,2.283h28.51
		c0.631,0,2.283-1.724,2.283-2.354V20.466C46.238,19.835,44.586,18.183,43.955,18.183z"/>
	<path fill="#FFFFFF" d="M41.672,34.068V15.899c0-0.63-1.652-2.283-2.283-2.283h-28.51c-0.63,0-2.283,1.653-2.283,2.283v18.169
		c0,0.632,1.653,2.283,2.283,2.283l28.51,0.034C40.02,36.387,41.672,35.271,41.672,34.068z M10.879,15.899h28.538v18.276H10.879
		V15.899z"/>
</g>
</svg>
