<?xml version="1.0" encoding="utf-8"?>
<!-- Generator: Adobe Illustrator 15.0.2, SVG Export Plug-In . SVG Version: 6.00 Build 0)  -->
<!DOCTYPE svg PUBLIC "-//W3C//DTD SVG 1.1//EN" "http://www.w3.org/Graphics/SVG/1.1/DTD/svg11.dtd">
<svg version="1.1" xmlns="http://www.w3.org/2000/svg" xmlns:xlink="http://www.w3.org/1999/xlink" x="0px" y="0px" width="96px"
	 height="96px" viewBox="0 0 96 96" enable-background="new 0 0 96 96" xml:space="preserve">
<g id="DO_NOT_EDIT_-_BOUNDING_BOX">
	<rect id="BOUNDING_BOX" fill="none" width="96" height="96"/>
</g>
<g id="DO_NOT_EDIT_-_SHADOW">
	<path id="SHADOW" opacity="0.4" d="M88.023,49c0,29.633-10.364,40-40,40c-29.635,0-40-10.367-40-40c0-29.634,10.366-40,40-40
		C77.659,9,88.023,19.365,88.023,49z"/>
</g>
<g id="GRAY_BACKGROUNDS">
	<g id="GRAY5">
		<linearGradient id="GRAY_5_1_" gradientUnits="userSpaceOnUse" x1="47.9995" y1="8.0107" x2="47.9995" y2="87.9897">
			<stop  offset="0.0364" style="stop-color:#DDDDDD"/>
			<stop  offset="0.4616" style="stop-color:#BFBFC1"/>
			<stop  offset="1" style="stop-color:#949499"/>
		</linearGradient>
		<path id="GRAY_5" fill-rule="evenodd" clip-rule="evenodd" fill="url(#GRAY_5_1_)" d="M8,47.989c0,29.633,10.365,40,40,40
			c29.637,0,40-10.367,40-40c0-28.985-9.926-39.53-38.091-39.979h-3.817C17.928,8.459,8,19.004,8,47.989z"/>
		<linearGradient id="HIGHLIGHT_GRA5_1_" gradientUnits="userSpaceOnUse" x1="47.9995" y1="8" x2="47.9995" y2="88.0005">
			<stop  offset="0.0364" style="stop-color:#FFFFFF"/>
			<stop  offset="0.3366" style="stop-color:#E1E1E3"/>
			<stop  offset="0.9874" style="stop-color:#96969A"/>
			<stop  offset="1" style="stop-color:#949499"/>
		</linearGradient>
		<path id="HIGHLIGHT_GRA5" opacity="0.25" fill="url(#HIGHLIGHT_GRA5_1_)" d="M48,8C18.365,8,8,18.365,8,48
			c0,29.633,10.365,40,40,40c29.637,0,40-10.367,40-40C88,18.365,77.637,8,48,8z M48,87.023C18.842,87.023,9,77.176,9,48
			S18.842,8.977,48,8.977S87,18.824,87,48S77.158,87.023,48,87.023z"/>
	</g>
</g>
<g id="PLACE_YOUR_GRAPHIC_HERE">
	<path opacity="0.05" d="M68.814,30.841H46.162c-0.46-1.837-2.136-3.173-4.064-3.173h-9.291c-1.151,0-2.286,0.475-3.113,1.304
		c-0.528,0.529-0.907,1.18-1.091,1.869l-0.038,0c-3.55,0-7.677,2.89-7.677,6.615v24.153c0,3.707,3.015,6.723,6.721,6.723h41.205
		c3.648,0,6.297-2.827,6.297-6.723V37.563C75.111,33.668,72.463,30.841,68.814,30.841z M42.722,52.458
		c0-4.076,3.315-7.392,7.391-7.392c4.076,0,7.393,3.316,7.393,7.392c0,4.076-3.316,7.392-7.393,7.392
		C46.038,59.85,42.722,56.534,42.722,52.458z M61.104,39.497v-0.206l5.492,0.034l-0.004,0.206L61.104,39.497z"/>
	<path opacity="0.07" d="M68.814,31.341H45.75c-0.252-1.79-1.797-3.173-3.653-3.173h-9.291c-1.02,0-2.025,0.422-2.759,1.157
		c-0.559,0.56-0.928,1.276-1.038,2.01l-0.444,0.006c-3.319,0-7.177,2.671-7.177,6.115v24.153c0,3.432,2.791,6.223,6.221,6.223
		h41.205c3.359,0,5.797-2.617,5.797-6.223V37.563C74.611,33.958,72.174,31.341,68.814,31.341z M42.222,52.458
		c0-4.352,3.54-7.892,7.891-7.892c4.352,0,7.893,3.54,7.893,7.892s-3.541,7.892-7.893,7.892
		C45.762,60.35,42.222,56.81,42.222,52.458z M60.604,39.994v-1.206l6.5,0.04l-0.02,1.206L60.604,39.994z"/>
	<path opacity="0.1" d="M68.814,31.841H45.287c-0.008-1.751-1.436-3.173-3.189-3.173h-9.291c-0.888,0-1.764,0.368-2.405,1.01
		c-0.589,0.59-0.924,1.354-0.919,2.053l-0.008,0.098l-0.909,0.012c-3.088,0-6.677,2.453-6.677,5.615v24.153
		c0,3.155,2.566,5.723,5.721,5.723h41.205c3.069,0,5.297-2.406,5.297-5.723V37.563C74.111,34.248,71.884,31.841,68.814,31.841z
		 M41.793,39.338c-0.323,0-0.585-0.262-0.585-0.585s0.262-0.585,0.585-0.585s0.585,0.262,0.585,0.585S42.116,39.338,41.793,39.338z
		 M41.722,52.458c0-4.627,3.764-8.392,8.391-8.392c4.628,0,8.393,3.765,8.393,8.392s-3.765,8.392-8.393,8.392
		C45.486,60.85,41.722,57.085,41.722,52.458z M60.104,40.491v-2.206l7.508,0.045l-0.035,2.206L60.104,40.491z M26.594,61.461v-23.74
		c0-0.08,0.136-0.278,0.402-0.486v24.569C26.765,61.648,26.643,61.525,26.594,61.461z"/>
	<path opacity="0.15" d="M68.814,32.341H44.779l0.008-0.485c0-1.482-1.207-2.688-2.689-2.688h-9.291
		c-0.756,0-1.503,0.314-2.051,0.863c-0.502,0.503-0.778,1.137-0.775,1.742l-0.046,0.55l-1.369,0.019
		c-2.856,0-6.177,2.234-6.177,5.115v24.153c0,2.88,2.342,5.223,5.221,5.223h41.205c2.779,0,4.797-2.196,4.797-5.223V37.563
		C73.611,34.537,71.594,32.341,68.814,32.341z M27.496,36.383V62.65c-0.962-0.448-1.402-0.899-1.402-1.114V37.721
		C26.094,37.261,26.727,36.69,27.496,36.383z M59.604,40.988v-3.154c0-0.028,0.024-0.051,0.053-0.051l8.463,0.051l-0.051,3.206
		L59.604,40.988z M41.793,39.838c-0.598,0-1.085-0.487-1.085-1.085s0.487-1.085,1.085-1.085s1.085,0.487,1.085,1.085
		S42.391,39.838,41.793,39.838z M41.222,52.458c0-4.903,3.989-8.892,8.891-8.892c4.903,0,8.893,3.989,8.893,8.892
		c0,4.903-3.989,8.892-8.893,8.892C45.211,61.35,41.222,57.361,41.222,52.458z"/>
	<path opacity="0.15" d="M68.814,32.841H44.271l0.016-0.985c0-1.207-0.982-2.188-2.189-2.188h-9.291
		c-1.241,0-2.33,1.022-2.328,2.147l-0.084,1.001l-1.829,0.025c-2.625,0-5.677,2.016-5.677,4.615v24.153
		c0,2.604,2.118,4.723,4.721,4.723h41.205c2.49,0,4.297-1.986,4.297-4.723V37.563C73.111,34.827,71.305,32.841,68.814,32.841z
		 M25.594,37.721c0-0.903,1.258-1.788,2.402-2.002v27.68c-1.039-0.384-2.402-1.1-2.402-1.862V37.721z M41.793,37.168
		c0.874,0,1.585,0.711,1.585,1.585s-0.711,1.585-1.585,1.585s-1.585-0.711-1.585-1.585S40.919,37.168,41.793,37.168z M59.506,52.458
		c0,5.179-4.214,9.392-9.393,9.392c-5.178,0-9.391-4.213-9.391-9.392s4.213-9.392,9.391-9.392
		C55.292,43.066,59.506,47.279,59.506,52.458z M68.619,40.988c0,0.304-0.247,0.552-0.551,0.552h-8.412
		c-0.305,0-0.553-0.248-0.553-0.552v-3.154c0-0.304,0.248-0.551,0.553-0.551h8.412c0.304,0,0.551,0.247,0.551,0.551V40.988z"/>
	<path fill="#FFFFFF" d="M68.814,32.341c0,0-14.6,0-25.051,0l0.023-1.485c0-0.932-0.756-1.688-1.689-1.688h-9.291
		c-0.932,0-1.83,0.756-1.83,1.688l-0.122,1.454l-2.29,0.031c-2.33,0-5.177,1.784-5.177,4.115v24.153
		c0,2.332,1.889,4.223,4.221,4.223h41.205c2.332,0,3.797-1.891,3.797-4.223V36.563C72.611,34.232,71.146,32.341,68.814,32.341z
		 M28.496,63.087c0,0-3.402-0.929-3.402-2.551V36.721c0-1.409,1.993-2.552,3.402-2.552V63.087z M41.793,35.668
		c1.151,0,2.085,0.934,2.085,2.085c0,1.152-0.934,2.085-2.085,2.085s-2.085-0.933-2.085-2.085
		C39.708,36.602,40.642,35.668,41.793,35.668z M50.113,61.35c-5.462,0-9.891-4.43-9.891-9.892c0-5.463,4.429-9.892,9.891-9.892
		c5.463,0,9.893,4.429,9.893,9.892C60.006,56.92,55.576,61.35,50.113,61.35z M69.119,39.988c0,0.582-0.469,1.052-1.051,1.052h-8.412
		c-0.582,0-1.053-0.47-1.053-1.052v-3.154c0-0.581,0.471-1.051,1.053-1.051h8.412c0.582,0,1.051,0.471,1.051,1.051V39.988z"/>
</g>
<g id="DO_NOT_EDIT_-_FOCAL_ZONE_GUIDES_ONLY">
</g>
</svg>
